# xmcd
#
# Track frame offsets:
#	150
#	15503
#	29678
#	45875
#	64114
#	82860
#	100403
#	113285
#	130048
#	143953
#
# Disc length: 2124 seconds
#
# Revision: 0
# Processed by: cddbd v1.5.2PL0 Copyright (c) Steve Scherf et al.
# Submitted via: EasyCDDAExtractor 9.1.3.1
#
DISCID=72084a0a
DTITLE=Tracy Lawrence - The Rock
DYEAR=2009
DGENRE=Country
TTITLE0=Dear Lord
TTITLE1=Every Prayer
TTITLE2=I'm Done
TTITLE3=The Book You Never Read
TTITLE4=The Rock
TTITLE5=Somebody Who Would Die For You
TTITLE6=Jesus Come Talk to Your Children
TTITLE7=I Know Where Heaven Is
TTITLE8=Up to Him
TTITLE9=Say a Prayer
EXTD=
EXTT0=
EXTT1=
EXTT2=
EXTT3=
EXTT4=
EXTT5=
EXTT6=
EXTT7=
EXTT8=
EXTT9=
PLAYORDER=
